Patient4_TMGait_0pt6_01_right_11_EMG.mot
version=1
nRows=16
nColumns=33
inDegrees=no
endheader
time	1LAddLong	2LGlutMax	3LGlutMed	4LIliopsoas	5LSemiMemb	6LBicFemLong	7LRecFem	8LVastMed	9LVastLat	10LGasMed	11LTibAnt	12lTibPost	13LPeroneusLong	14LSol	15LExtDigLong	16LFlexDigLong	17RAddLong	18RGlutMax	19RGlutMed	20RIliopsoas	21RSemiMemb	22RBicFemLong	23RRecFem	24RVastMed	25RVastLat	26RGasMed	27RTibAnt	28RTibPost	29RPeroneusLong	30RSol	31RExtDigLong	32RFlexDigLong
13.605	-0.042419	-0.44098	-0.045166	-0.010223	0.026245	0.062714	0.15381	0.009155	0.014648	0.010529	-0.006561	0.007172	-0.12665	0.045929	-0.032043	0.003662	0.030212	-0.085297	-0.037231	0.022278	0.14175	0.021362	-0.083466	-0.13992	-0.019989	0.009613	0.22537	-0.001526	-0.18723	-0.12924	-0.020142	-0.004883
13.606	-0.03479	-0.39856	-0.040894	-0.00473	0.061188	0.080719	0.12222	0.004272	0.039215	0.041046	-0.033875	-0.004272	0.10101	0.066681	-0.04425	0.003204	-0.000458	-0.1355	-0.24887	-0.007172	0.061951	0.017853	-0.17425	-0.033569	0.018463	0.022583	0.13412	-0.00351	-0.076294	-0.2243	-0.018463	0.002594
13.607	-0.036774	-0.34668	-0.026703	0.004883	0.049591	0.11398	0.087585	0.005493	0.041199	0.00351	-0.068512	0.005341	0.16327	0.072327	-0.042419	-0.002136	0.023499	-0.097809	-0.24887	-0.03418	-0.056152	-0.05249	-0.18204	-0.009918	-0.020752	0.018463	-0.1181	-0.002136	-0.01236	-0.24307	-0.019531	-0.003052
13.608	-0.031128	-0.3154	-0.03067	-0.015106	0.022125	0.089874	0.074005	0.012207	0.080872	-0.03479	-0.036163	-0.000763	-0.29343	0.087891	0.018921	-0.002594	0.06012	-0.072327	0.13031	-0.055542	-0.075378	-0.10346	-0.14358	-0.08316	-0.003967	0.021667	-0.20081	-0.002441	-0.10757	-0.091705	-0.018311	-0.00885
13.609	-0.014496	-0.26398	-0.035248	-0.012207	0.026855	-0.017548	0.024414	0.01297	0.13519	-0.018768	0.009308	0.001831	-0.24338	0.001526	-0.002747	0.00061	0.074921	-0.078125	-0.1033	-0.04303	-0.18524	-0.1796	-0.1474	-0.066071	0.000153	0.020294	-0.11124	-0.014648	0.062256	0.008392	-0.017395	-0.008545
13.61	0.00351	-0.23086	-0.039978	0.010376	0.021515	-0.12024	-0.040894	0.010681	0.12344	0.020142	0.000916	-0.001831	-0.35172	-0.058289	-0.021973	0.001678	0.10117	-0.050201	0.049438	-0.015259	-0.2005	-0.11688	-0.16617	-0.078278	0.002136	-0.005341	-0.024719	-0.012207	0.1973	0.11643	-0.012665	-0.01358
13.611	0.032501	-0.18295	-0.032196	0.025177	-0.005188	-0.17532	-0.10483	0.010223	0.14069	0.042572	0.005646	0.001373	-0.29144	0.019226	0.038605	-0.016327	0.063934	-0.037079	0.001526	-0.012665	0.048676	0.006714	-0.18249	-0.026703	0	-0.005341	-0.038605	-0.010529	-0.048676	0.14801	-0.01709	-0.007019
13.612	0.036469	-0.1355	-0.019379	0.021362	-0.001831	-0.14099	-0.13199	0.009155	0.058899	0.002747	0.009613	0.004578	-0.053711	0.017853	0.018005	-0.005341	-0.022888	-0.029907	0.027313	-0.014801	-0.078735	0.082092	-0.17303	0.027618	0	-0.00473	0.044098	-0.018463	-0.56381	0.08255	-0.018005	-0.006714
13.613	0.055389	-0.078888	-0.029144	0.014191	0.033569	-0.11459	-0.10513	-0.007935	-0.099182	-0.013428	0.002747	0.000153	0.007782	-0.037537	-0.018616	-0.007324	-0.039368	-0.041046	-0.016785	-0.023956	-0.052948	0.075836	-0.18219	0.019684	-0.004272	-0.031433	0.076447	-0.037537	-0.271	0.17822	-0.013885	-0.013123
13.614	0.057678	-0.032501	-0.028992	-0.001526	0.018311	-0.11017	-0.079803	-0.019379	-0.1944	-0.024414	0.010071	-0.001984	0.041656	-0.039978	-0.031891	-0.000916	-0.035706	0.010986	-0.093689	-0.006104	-0.28244	0.13886	-0.15152	0.011292	0.001831	-0.041504	0.015869	-0.001526	0.003357	0.059204	-0.009613	-0.018463
13.615	0.058594	-0.029144	-0.022888	0	0.066986	-0.094147	-0.02182	-0.010223	-0.19913	0.011292	0.010834	0.000153	0.058136	-0.010834	0.007172	0.009155	-0.042267	0.018158	-0.028381	-0.014496	-0.2327	0.25421	-0.14771	0.093231	-0.001068	-0.046692	-0.035095	0.036926	0.19669	-0.051727	-0.018921	-0.013733
13.616	0.037384	-0.016022	-0.026245	0.015869	0.093079	-0.050507	-0.001678	-0.003662	-0.17059	-0.007019	0.00946	0.00412	0.02533	0.02655	0.035858	0.002136	-0.065918	0.082092	0.17746	-0.012054	0.13062	0.25436	-0.16861	0.13565	0.023804	-0.036621	-0.001526	-0.002899	0.62027	-0.13184	0	-0.015564
13.617	0.023041	0.029907	-0.023193	0.010681	0.074158	0.033417	-0.02243	-0.003662	-0.12833	-0.016632	0.001831	0.003662	-0.007477	0.032959	0.045776	0.009003	-0.052795	0.079346	0.11261	-0.012054	0.15015	0.050507	-0.15106	0.089874	-0.011749	-0.047302	0.086823	-0.033417	0.089569	-0.47501	-0.013123	-0.018616
13.618	0.008087	0.11841	-0.054932	0.006714	0.085449	0.025482	0.007629	-0.003204	-0.069122	0.032043	-0.000153	0.001984	0.029755	0.036469	0.048828	0.001068	-0.029449	0.16678	0.12466	-0.021362	0.11368	-0.1445	-0.09964	0.003815	-0.016022	-0.051575	0.10315	-0.1619	-0.24063	-0.6395	-0.011139	-0.017548
13.619	0.011444	0.11948	-0.057068	-0.004883	0.055695	0.054169	-0.005798	0.015869	-0.068207	0.037231	-0.006866	0.002899	0.053101	0.058746	0.039063	-0.00061	0.006561	0.159	0.1033	-0.032196	-0.11749	-0.086365	-0.098114	-0.024109	-0.034027	-0.02594	0.057068	-0.26337	0.005035	-0.68268	-0.015564	-0.014038
13.62	-0.021667	0.088654	-0.041656	0.009613	-0.01358	0.063171	-0.019531	0.032043	-0.024414	0.029755	-0.001984	0.005035	0.055389	0.042267	0.036469	-0.005493	0.019836	0.10117	-0.34836	-0.001678	-0.054474	0.10284	-0.11261	-0.003662	-0.009766	-0.02182	0.036316	0.25589	-0.03479	-0.67047	-0.011292	-0.015564
